# xmcd
#
# Track frame offsets:
#	150
#	39059
#	59628
#	74962
#	97823
#	107811
#	124977
#	136753
#	158423
#	173078
#	192007
#	204186
#	225076
#	238853
#	248258
#	262694
#	280412
#	290656
#	301632
#
# Disc length: 4130 seconds
#
# Revision: 4
# Processed by: cddbd v1.5.2PL0 Copyright (c) Steve Scherf et al.
# Submitted via: EasyCDDAExtractor 12.0.1.1
#
DISCID=f5102013
DTITLE=Various Artist - Golden Rock Ballads - vol.2
DYEAR=1900
DGENRE=Ballads
TTITLE0=King Crimson - Epitaph
TTITLE1=Santana - Samba Pa Ti
TTITLE2=Cat Stevens - Wild World
TTITLE3=The Moody Blues - Melancholy Man
TTITLE4=The Doors - People Are Strange
TTITLE5=The Rolling Stones - Paint It Black
TTITLE6=Herman's Hermits - A Kind Of Hush
TTITLE7=Roberta Flack - Killing Me Softly
TTITLE8=Niel Diamond - Song Sung Blue
TTITLE9=The Kinks - Lola
TTITLE10=Joe Cocker - Change In Louise
TTITLE11=George Harrison - My Sweet Lord
TTITLE12=Chicago - Colour My World
TTITLE13=Bill Withers - Ain't No Sunshine
TTITLE14=Engelbert Humperdinck - Spanish Eyes
TTITLE15=Elton John - Daniel
TTITLE16=T.Rex - Girl
TTITLE17=The Beatles - Here, There And Everywhere
TTITLE18=Genesis - For Absent Friends
EXTD=ID3G:  17
EXTT0=
EXTT1=
EXTT2=
EXTT3=
EXTT4=
EXTT5=
EXTT6=
EXTT7=
EXTT8=
EXTT9=
EXTT10=
EXTT11=
EXTT12=
EXTT13=
EXTT14=
EXTT15=
EXTT16=
EXTT17=
EXTT18=
PLAYORDER=
